<?xml version="1.0" encoding="iso-8859-1"?>
<!-- Uploaded to: SVG Repo, www.svgrepo.com, Generator: SVG Repo Mixer Tools -->
<svg height="800px" width="800px" version="1.1" id="Layer_1" xmlns="http://www.w3.org/2000/svg" xmlns:xlink="http://www.w3.org/1999/xlink" 
	 viewBox="0 0 512 512" xml:space="preserve">
<g>
	<path style="fill:#E8EDEE;" d="M441.379,291.31h-95.338c4.414-10.593,7.062-22.952,7.062-35.31c0-12.359-2.648-24.717-7.062-35.31
		h69.738c14.124,0,25.6-11.476,25.6-25.6V0H512v220.69C512,259.531,480.221,291.31,441.379,291.31"/>
	<path style="fill:#E8EDEE;" d="M158.897,256c0-12.359,2.648-24.717,7.062-35.31H70.621C31.779,220.69,0,252.469,0,291.31V512
		h70.621V316.91c0-14.124,11.476-25.6,25.6-25.6h69.738C161.545,280.717,158.897,268.359,158.897,256"/>
</g>
<g>
	<path style="fill:#E15649;" d="M275.421,247.172c-1.766,0-4.414-0.883-6.179-2.648c-3.531-3.531-3.531-8.828,0-12.359l49.434-51.2
		c3.531-3.531,8.828-3.531,12.359,0c3.531,3.531,3.531,8.828,0,12.359l-49.434,51.2C279.835,246.29,278.069,247.172,275.421,247.172
		"/>
	<path style="fill:#E15649;" d="M256,238.345c-9.71,0-17.655,7.945-17.655,17.655c0,9.71,7.945,17.655,17.655,17.655
		c9.71,0,17.655-7.945,17.655-17.655C273.655,246.29,265.71,238.345,256,238.345 M256,291.31c-19.421,0-35.31-15.89-35.31-35.31
		c0-19.421,15.89-35.31,35.31-35.31s35.31,15.89,35.31,35.31C291.31,275.421,275.421,291.31,256,291.31"/>
	<path style="fill:#E15649;" d="M256,167.724c-48.552,0-88.276,39.724-88.276,88.276s39.724,88.276,88.276,88.276
		s88.276-39.724,88.276-88.276S304.552,167.724,256,167.724 M256,361.931c-58.262,0-105.931-47.669-105.931-105.931
		S197.738,150.069,256,150.069S361.931,197.738,361.931,256S314.262,361.931,256,361.931"/>
	<path style="fill:#E15649;" d="M236.579,247.172c-2.648,0-4.414-0.883-6.179-2.648l-49.434-51.2c-3.531-3.531-3.531-8.828,0-12.359
		c3.531-3.531,8.828-3.531,12.359,0l49.434,51.2c3.531,3.531,3.531,8.828,0,12.359C240.993,246.29,238.345,247.172,236.579,247.172"
		/>
	<path style="fill:#E15649;" d="M324.855,333.683c-2.648,0-4.414-0.883-6.179-2.648l-50.317-50.317
		c-3.531-3.531-3.531-8.828,0-12.359c3.531-3.531,8.828-3.531,12.359,0l50.317,50.317c3.531,3.531,3.531,8.828,0,12.359
		C329.269,332.8,326.621,333.683,324.855,333.683"/>
	<path style="fill:#E15649;" d="M187.145,333.683c-2.648,0-4.414-0.883-6.179-2.648c-3.531-3.531-3.531-8.828,0-12.359
		l50.317-50.317c3.531-3.531,8.828-3.531,12.359,0c3.531,3.531,3.531,8.828,0,12.359l-50.317,50.317
		C191.559,332.8,189.793,333.683,187.145,333.683"/>
</g>
</svg>