<?xml version="1.0" encoding="UTF-8" standalone="no"?>
<!-- Creator: CorelDRAW -->

<svg
   xml:space="preserve"
   width="128.436mm"
   height="71.2233mm"
   style="shape-rendering:geometricPrecision; text-rendering:geometricPrecision; image-rendering:optimizeQuality; fill-rule:evenodd; clip-rule:evenodd"
   viewBox="0 0 127.5 70.7043"
   version="1.1"
   id="svg49"
   sodipodi:docname="logo_white_w150.svg"
   inkscape:version="1.2.2 (732a01da63, 2022-12-09)"
   xmlns:inkscape="http://www.inkscape.org/namespaces/inkscape"
   xmlns:sodipodi="http://sodipodi.sourceforge.net/DTD/sodipodi-0.dtd"
   xmlns="http://www.w3.org/2000/svg"
   xmlns:svg="http://www.w3.org/2000/svg"><sodipodi:namedview
   id="namedview51"
   pagecolor="#ffffff"
   bordercolor="#000000"
   borderopacity="0.25"
   inkscape:showpageshadow="2"
   inkscape:pageopacity="0.0"
   inkscape:pagecheckerboard="0"
   inkscape:deskcolor="#d1d1d1"
   inkscape:document-units="mm"
   showgrid="false"
   inkscape:zoom="2.7769342"
   inkscape:cx="242.71371"
   inkscape:cy="135.04101"
   inkscape:window-width="1920"
   inkscape:window-height="1017"
   inkscape:window-x="-8"
   inkscape:window-y="32"
   inkscape:window-maximized="1"
   inkscape:current-layer="_273804824" />
 <defs
   id="defs4">
  <style
   type="text/css"
   id="style2">
   <![CDATA[
    .fil0 {fill:#FEFEFE;fill-rule:nonzero}
    .fil1 {fill:#0079C2;fill-rule:nonzero}
   ]]>
  </style>
 </defs>
 <g
   id="Слой_x0020_1"
   inkscape:label="Слой 1">
  <metadata
   id="CorelCorpID_0Corel-Layer" />
  <g
   id="_273804824">
   <path
   id="_275563608"
   class="fil0"
   d="M37.6361 23.2808c-0.0535073,2.4381 -0.343677,5.0131 -0.716541,6.54834 0.133619,-2.64945 -0.183453,-6.38672 -0.793972,-9.30778 -0.609526,-2.92136 -2.33556,-7.78933 -3.71215,-10.0523 -1.27167,2.14992 -2.83797,6.36816 -3.66083,10.0253 -0.824746,3.66321 -0.849366,8.08962 -0.849366,9.41956 -0.217007,-1.12316 -0.765481,-5.10999 -0.609427,-9.12582 0.129351,-3.3112 0.903171,-6.70896 1.32795,-8.27486 1.61763,-5.22872 3.44958,-8.56603 3.79167,-9.09216 0.343181,0.526138 2.65144,4.64014 3.84627,8.96043 1.18967,4.32436 1.42861,8.45842 1.3764,10.8993zm-5.19418 18.6606c-0.719519,-1.35079 -1.83324,-3.92211 -1.93897,-7.89267 -0.0279945,-3.84339 1.51051,-7.14118 1.96041,-7.82457 0.398972,0.683384 1.72692,3.556 1.88348,7.47821 0.107114,3.83972 -1.16455,6.86074 -1.90492,8.23903zm5.61757 -29.5083c-1.45621,-6.38811 -5.11377,-11.5825 -5.61757,-12.4331 -0.800028,1.19294 -3.71821,5.7768 -5.19983,10.87 -1.61872,5.67763 -1.85518,10.7121 -1.29728,15.674 0.554133,4.95543 2.65134,10.0481 2.65134,10.0481 1.11283,2.67328 2.78129,5.53557 3.86722,6.93996 1.59241,-2.0711 5.25473,-8.23992 6.39278,-16.3008 0.635138,-4.48002 0.66353,-8.40392 -0.796653,-14.7982z" />
   <path
   id="_275563656"
   class="fil0"
   d="M34.9172 45.0208l-11.0985 0 0 7.44615c0.0101257,-0.010225 0.0170747,-0.0204499 0.0286894,-0.0307741 2.61471,-2.61362 6.853,-2.61362 9.46751,0 2.61471,2.61689 2.61471,6.85618 0,9.47029 -0.00923224,0.00933151 -0.0213433,0.0200528 -0.0316676,0.0312705 0,0.00317668 0,0.00317668 -0.0027796,0.00317668 -0.00883515,0.00933151 -0.025612,0.0246193 -0.0372268,0.0344472 -2.60706,2.589 -6.01654,3.88717 -9.42453,3.88717 -3.42248,0 -6.84645,-1.3084 -9.45927,-3.91506 -4.59994,-4.6052 -5.14762,-11.7277 -1.63708,-16.9267 0.473028,-0.704529 1.01594,-1.37173 1.63708,-1.9892 2.61282,-2.61372 6.03679,-3.91794 9.45927,-3.91794l0 -17.904c-13.1518,0 -23.8187,10.6656 -23.8187,23.8111 0,13.1536 10.6669,23.8177 23.8187,23.8177 6.86213,0 13.0384,-2.90369 17.3819,-7.54016l0 -16.2775 -6.28338 0z" />
   <polygon
   id="_275563704"
   class="fil0"
   points="43.7211,21.2822 51.4145,21.2822 51.4145,23.8805 47.7528,23.8805 47.7528,42.1962 43.7211,42.1962 " />
   <path
   id="_275563752"
   class="fil0"
   d="M51.5071 42.1962l3.94633 0 0.378025 -5.55701 1.90184 0 0.374253 5.55701 3.94822 0 -2.10237 -20.914 -6.34205 0 -2.10426 20.914zm4.46691 -7.85822l0.692914 -10.4597 0.228622 0 0.691028 10.4597 -1.61256 0z" />
   <path
   id="_275563800"
   class="fil0"
   d="M67.8321 34.8734l0 3.93611c0,0.540632 0.403737,0.690135 0.632359,0.690135 0.378621,0 0.636627,-0.329283 0.636627,-0.690135l0 -4.86043c0,-0.65936 -0.115056,-1.37173 -1.61584,-1.37173l-1.64225 0 0 -2.3022 1.69863 0c1.15383,0 1.55945,-0.273393 1.55945,-1.55568l0 -4.15629c0,-0.358568 -0.258006,-0.683086 -0.636627,-0.683086 -0.228622,0 -0.632359,0.149403 -0.632359,0.683086l0 3.41136 -4.03608 0 0 -2.956c0,-1.46167 0.174122,-3.73677 2.99819,-3.73677l3.34515 0c2.82705,0 2.99651,2.2751 2.99651,3.73677l0 3.34803c0,2.26944 -1.5254,2.89446 -2.73661,2.8343l0 0.210157c2.70723,-0.0630373 2.73661,2.09016 2.73661,2.83976l0 4.20722c0,1.46534 -0.169456,3.73767 -2.99651,3.73767l-3.34515 0c-2.82407,0 -2.99819,-2.27232 -2.99819,-3.73767l0 -3.58459 4.03608 0z" />
   <polygon
   id="_275563848"
   class="fil0"
   points="75.7882,21.2822 85.1299,21.2822 85.1299,42.1962 81.0933,42.1962 81.0933,23.8805 79.8257,23.8805 79.8257,42.1962 75.7882,42.1962 " />
   <path
   id="_275563896"
   class="fil0"
   d="M87.7842 42.1962l4.03568 0 0 -7.1113 2.303 0c2.82784,0 2.99968,-2.26776 2.99968,-3.73628l0 -6.32954c0,-1.46167 -0.171839,-3.73687 -2.99968,-3.73687l-6.33868 0 0 20.914zm4.03568 -9.4148l0 -8.90087 0.51085 0c0.438581,0 0.751881,0.386066 0.751881,1.03987l0 6.82074c0,0.655985 -0.3133,1.04026 -0.751881,1.04026l-0.51085 0z" />
   <path
   id="_275563944"
   class="fil0"
   d="M99.7777 38.4584c0,1.46495 0.16896,3.73777 2.99273,3.73777l3.34227 0c2.82367,0 2.99641,-2.27282 2.99641,-3.73777l0 -13.4394c0,-1.46167 -0.172732,-3.73687 -2.99641,-3.73687l-3.34227 0c-2.82377,0 -2.99273,2.2752 -2.99273,3.73687l0 13.4394zm5.30308 0.351619c0,0.360851 -0.262076,0.689638 -0.635535,0.689638 -0.234678,0 -0.638414,-0.149006 -0.638414,-0.689638l0 -14.2468c0,-0.533186 0.403737,-0.682689 0.638414,-0.682689 0.373459,0 0.635535,0.324518 0.635535,0.682689l0 14.2468z" />
   <polygon
   id="_275563992"
   class="fil0"
   points="122.256,21.2822 127.5,21.2822 127.5,42.1962 123.466,42.1962 123.466,29.0813 123.323,29.0813 121.245,42.1962 118.017,42.1962 115.942,29.0813 115.8,29.0813 115.8,42.1962 111.761,42.1962 111.761,21.2822 117.005,21.2822 119.629,35.9803 " />
   <polygon
   id="_275549856"
   class="fil0"
   points="43.7333,57.5153 127.5,57.5153 127.5,45.0245 43.7333,45.0245 " />
   <polygon
   id="_275550144"
   class="fil1"
   points="49.5175,48.0539 49.5175,49.2726 47.4682,49.2726 47.4682,54.4836 45.9186,54.4836 45.9186,48.0539 " />
   <path
   id="_275550912"
   class="fil1"
   d="M52.0333 52.0389l-0.411579 -2.83062 -0.00744535 0 -0.40324 2.83062 0.822265 0zm0.538249 -3.98545l1.42355 6.4301 -1.52173 0 -0.233188 -1.28834 -1.18232 0 -0.196557 1.28834 -1.54069 0 1.39724 -6.4301 1.85369 0z" />
   <path
   id="_275551224"
   class="fil1"
   d="M54.3081 50.0148c0,-1.33361 0.83249,-2.10564 1.94304,-2.10564 1.22739,0 1.91713,0.798142 1.91713,1.7034 0,0.796156 -0.26029,1.19989 -0.914091,1.48679l0.0180674 0c0.653404,0.24113 1.11998,0.511248 1.11998,1.66508 0,1.27216 -0.824151,1.87136 -2.05174,1.87136 -0.957671,0 -2.03238,-0.420017 -2.03238,-2.07805l1.42385 0c0,0.717037 0.206782,0.923422 0.546687,0.923422 0.402843,0 0.563861,-0.206385 0.563861,-0.923422 0,-0.599301 -0.188616,-0.841523 -0.67981,-0.841523l-0.223956 0 0 -1.15383 0.366907 0c0.222566,0 0.465583,-0.251851 0.465583,-0.708202 0,-0.482955 -0.152679,-0.788413 -0.520083,-0.788413 -0.392916,0 -0.519189,0.287391 -0.519189,0.949034l-1.42385 0z" />
   <path
   id="_275550624"
   class="fil1"
   d="M60.6928 49.6218l0 3.25858c0,0.38696 0.268827,0.573193 0.536462,0.573193 0.26029,0 0.537852,-0.186233 0.537852,-0.573193l0 -3.25858c0,-0.368297 -0.277563,-0.529414 -0.537852,-0.529414 -0.267636,0 -0.536462,0.161117 -0.536462,0.529414zm2.62394 0.106617l0 2.88383c0,1.28139 -0.636429,2.02355 -2.08748,2.02355 -1.43169,0 -2.08599,-0.742153 -2.08599,-2.02355l0 -2.89217c0,-1.01277 0.636032,-1.81091 2.09631,-1.81091 1.45889,0 2.07715,0.816805 2.07715,1.81925z" />
   <path
   id="_275551152"
   class="fil1"
   d="M65.6982 50.8217l0.27796 0c0.384677,0 0.752378,-0.18941 0.752378,-0.823257 0,-0.636429 -0.331467,-0.789704 -0.779379,-0.789704l-0.250958 0 0 1.61296zm0 3.66192l-1.54923 0 0 -6.42971 2.2481 0c0.894931,0 1.8803,0.322334 1.8803,1.96091 0,1.58596 -0.967102,1.9617 -1.8803,1.9617l-0.69887 0 0 2.5071z" />
   <path
   id="_275552016"
   class="fil1"
   d="M71.0083 52.0389l-0.411579 -2.83062 -0.00883515 0 -0.40324 2.83062 0.823655 0zm0.536363 -3.98545l1.42494 6.4301 -1.52163 0 -0.233784 -1.28834 -1.18183 0 -0.196954 1.28834 -1.54039 0 1.39655 -6.4301 1.8531 0z" />
   <path
   id="_275551968"
   class="fil1"
   d="M77.5819 51.9408l0 0.599202c0,1.46028 -0.663133,2.09592 -2.09631,2.09592 -1.42306,0 -2.09542,-0.62809 -2.09542,-2.10475l0 -2.80273c0,-1.01187 0.6267,-1.81875 2.09542,-1.81875 1.45135,0 2.09631,0.824548 2.09631,1.82759l0 0.439177 -1.55012 0 0 -0.581631c0,-0.341295 -0.322235,-0.502412 -0.563861,-0.502412 -0.258999,0 -0.528521,0.142951 -0.528521,0.475411l0 3.20597c0,0.482856 0.207179,0.67981 0.528521,0.67981 0.330971,0 0.563861,-0.178391 0.563861,-0.66214l0 -0.850656 1.55012 0z" />
   <polygon
   id="_275552040"
   class="fil1"
   points="82.5149,48.0539 82.5149,54.4836 80.9647,54.4836 80.9647,49.2726 79.9538,49.2726 79.9538,54.4836 78.4036,54.4836 78.4036,48.0539 " />
   <path
   id="_275552544"
   class="fil1"
   d="M84.9595 50.8217l0.277066 0c0.38557,0 0.751981,-0.18941 0.751981,-0.823257 0,-0.636429 -0.330574,-0.789704 -0.779082,-0.789704l-0.249965 0 0 1.61296zm0 3.66192l-1.54923 0 0 -6.42971 2.2477 0c0.894931,0 1.8803,0.322334 1.8803,1.96091 0,1.58596 -0.966804,1.9617 -1.8803,1.9617l-0.698473 0 0 2.5071z" />
   <polygon
   id="_275553312"
   class="fil1"
   points="88.3615,48.0539 91.9609,48.0539 91.9609,49.2726 89.9107,49.2726 89.9107,50.534 91.7471,50.534 91.7471,51.7535 89.9107,51.7535 89.9107,53.2673 91.9609,53.2673 91.9609,54.4836 88.3615,54.4836 " />
   <path
   id="_275553648"
   class="fil1"
   d="M95.7214 49.2726l-1.02895 0 0 1.20823c0,1.23533 -0.106717,2.06852 -0.492783,2.78645l1.52173 0 0 -3.99468zm1.55012 -1.21875l0 5.21343 0.331566 0 0 2.53301 -1.50446 0 0 -1.31674 -2.23003 0 0 1.31674 -1.50446 0 0 -2.53301 0.214228 0c0.466476,-0.736693 0.599301,-1.39744 0.599301,-3.37771l0 -1.83573 4.09385 0z" />
   <polygon
   id="_275553672"
   class="fil1"
   points="98.2295,48.0539 101.83,48.0539 101.83,49.2726 99.7786,49.2726 99.7786,50.534 101.614,50.534 101.614,51.7535 99.7786,51.7535 99.7786,53.2673 101.83,53.2673 101.83,54.4836 98.2295,54.4836 " />
   <path
   id="_275553576"
   class="fil1"
   d="M107.113 48.0539l0 6.42971 -1.55012 0 0 -5.21095 -1.0216 0 0 2.21038c0,2.43761 -0.445629,3.07136 -1.49473,3.07136 -0.331566,0 -0.563464,-0.0707805 -0.833085,-0.186233l0 -1.08315c0.0721703,0.0354399 0.223956,0.0532095 0.376238,0.0532095 0.431235,0 0.456847,-0.259892 0.456847,-2.24869l0 -3.03562 4.06645 0z" />
   <polygon
   id="_275553288"
   class="fil1"
   points="108.008,48.0539 111.607,48.0539 111.607,49.2726 109.556,49.2726 109.556,50.534 111.392,50.534 111.392,51.7535 109.556,51.7535 109.556,53.2673 111.607,53.2673 111.607,54.4836 108.008,54.4836 " />
   <polygon
   id="_275553720"
   class="fil1"
   points="113.827,50.534 114.839,50.534 114.839,48.0539 116.389,48.0539 116.389,54.4836 114.839,54.4836 114.839,51.7535 113.827,51.7535 113.827,54.4836 112.278,54.4836 112.278,48.0539 113.827,48.0539 " />
   <path
   id="_275553792"
   class="fil1"
   d="M118.762 48.0539l0 1.59549c0,0.705819 -0.198443,1.73536 -0.233288,2.44505l0.00923224 0 1.30721 -4.04054 1.47736 0 0 6.42971 -1.47736 0 0 -1.49562c0,-0.688248 0.214625,-1.73685 0.286795,-2.41577l-0.00933151 0 -1.33411 3.91139 -1.50356 0 0 -6.42971 1.47706 0z" />
   <polygon
   id="_275553864"
   class="fil1"
   points="122.219,48.0539 125.817,48.0539 125.817,49.2726 123.768,49.2726 123.768,50.534 125.603,50.534 125.603,51.7535 123.768,51.7535 123.768,53.2673 125.817,53.2673 125.817,54.4836 122.219,54.4836 " />
   
   
   
   
   
   
   
   
   
   
   
   
   
  </g>
 </g>
</svg>
